<?xml version="1.0" encoding="UTF-8" standalone="no"?>
<!DOCTYPE svg PUBLIC "-//W3C//DTD SVG 1.1//EN"
 "http://www.w3.org/Graphics/SVG/1.1/DTD/svg11.dtd">
<!-- Generated by graphviz version 2.28.0 (20110507.0327)
 -->
<!-- Title: G Pages: 1 -->
<svg width="700pt" height="476pt"
 viewBox="0.00 0.00 700.00 476.00" xmlns="http://www.w3.org/2000/svg" xmlns:xlink="http://www.w3.org/1999/xlink">
<g id="graph1" class="graph" transform="scale(1 1) rotate(0) translate(4 472)">
<title>G</title>
<polygon fill="white" stroke="white" points="-4,5 -4,-472 697,-472 697,5 -4,5"/>
<!--  Исходный текст -->
<g id="node1" class="node"><title> Исходный текст</title>
<polygon fill="none" stroke="black" points="277.25,-468 152.75,-468 152.75,-432 277.25,-432 277.25,-468"/>
<text text-anchor="middle" x="215" y="-446.3" font-family="Helvetica,sans-Serif" font-size="14.00"> Исходный текст</text>
</g>
<!-- Компилятор -->
<g id="node7" class="node"><title>Компилятор</title>
<ellipse fill="none" stroke="black" cx="215" cy="-378" rx="61.6163" ry="18"/>
<text text-anchor="middle" x="215" y="-374.3" font-family="Helvetica,sans-Serif" font-size="14.00">Компилятор</text>
</g>
<!--  Исходный текст&#45;&gt;Компилятор -->
<g id="edge2" class="edge"><title> Исходный текст&#45;&gt;Компилятор</title>
<path fill="none" stroke="black" d="M215,-431.697C215,-423.983 215,-414.712 215,-406.112"/>
<polygon fill="black" stroke="black" points="218.5,-406.104 215,-396.104 211.5,-406.104 218.5,-406.104"/>
</g>
<!-- Байт&#45;код -->
<g id="node2" class="node"><title>Байт&#45;код</title>
<polygon fill="none" stroke="black" points="252,-324 178,-324 178,-288 252,-288 252,-324"/>
<text text-anchor="middle" x="215" y="-302.3" font-family="Helvetica,sans-Serif" font-size="14.00">Байт&#45;код</text>
</g>
<!-- Менеджер библиотек -->
<g id="node8" class="node"><title>Менеджер библиотек</title>
<ellipse fill="none" stroke="black" cx="102" cy="-234" rx="102.536" ry="18"/>
<text text-anchor="middle" x="102" y="-230.3" font-family="Helvetica,sans-Serif" font-size="14.00">Менеджер библиотек</text>
</g>
<!-- Байт&#45;код&#45;&gt;Менеджер библиотек -->
<g id="edge5" class="edge"><title>Байт&#45;код&#45;&gt;Менеджер библиотек</title>
<path fill="none" stroke="black" d="M181.46,-287.876C165.641,-278.673 146.998,-267.216 131.694,-257.322"/>
<polygon fill="black" stroke="black" points="133.399,-254.255 123.115,-251.706 129.565,-260.111 133.399,-254.255"/>
</g>
<!-- Компилятор байт&#45;кода -->
<g id="node10" class="node"><title>Компилятор байт&#45;кода</title>
<ellipse fill="none" stroke="black" cx="328" cy="-234" rx="104.937" ry="18"/>
<text text-anchor="middle" x="328" y="-230.3" font-family="Helvetica,sans-Serif" font-size="14.00">Компилятор байт&#45;кода</text>
</g>
<!-- Байт&#45;код&#45;&gt;Компилятор байт&#45;кода -->
<g id="edge17" class="edge"><title>Байт&#45;код&#45;&gt;Компилятор байт&#45;кода</title>
<path fill="none" stroke="black" d="M242.643,-287.876C257.748,-278.519 276.616,-266.831 292.768,-256.825"/>
<polygon fill="black" stroke="black" points="294.763,-259.707 301.421,-251.465 291.076,-253.756 294.763,-259.707"/>
</g>
<!-- ВМ -->
<g id="node11" class="node"><title>ВМ</title>
<ellipse fill="none" stroke="black" cx="498" cy="-90" rx="27" ry="18"/>
<text text-anchor="middle" x="498" y="-86.3" font-family="Helvetica,sans-Serif" font-size="14.00">ВМ</text>
</g>
<!-- Байт&#45;код&#45;&gt;ВМ -->
<g id="edge20" class="edge"><title>Байт&#45;код&#45;&gt;ВМ</title>
<path fill="none" stroke="black" d="M252.2,-300.691C309.163,-293.388 414.323,-276.904 442,-252 443.307,-250.824 473.559,-162.596 489.043,-117.265"/>
<polygon fill="black" stroke="black" points="492.365,-118.366 492.284,-107.772 485.74,-116.105 492.365,-118.366"/>
</g>
<!-- Машинный код -->
<g id="node3" class="node"><title>Машинный код</title>
<polygon fill="none" stroke="black" points="384.25,-180 271.75,-180 271.75,-144 384.25,-144 384.25,-180"/>
<text text-anchor="middle" x="328" y="-158.3" font-family="Helvetica,sans-Serif" font-size="14.00">Машинный код</text>
</g>
<!-- Менеджер AOT библиотек -->
<g id="node9" class="node"><title>Менеджер AOT библиотек</title>
<ellipse fill="none" stroke="black" cx="328" cy="-90" rx="124.184" ry="18"/>
<text text-anchor="middle" x="328" y="-86.3" font-family="Helvetica,sans-Serif" font-size="14.00">Менеджер AOT библиотек</text>
</g>
<!-- Машинный код&#45;&gt;Менеджер AOT библиотек -->
<g id="edge11" class="edge"><title>Машинный код&#45;&gt;Менеджер AOT библиотек</title>
<path fill="none" stroke="black" d="M322.084,-143.697C321.289,-135.983 321.062,-126.712 321.405,-118.112"/>
<polygon fill="black" stroke="black" points="324.898,-118.324 322.105,-108.104 317.915,-117.836 324.898,-118.324"/>
</g>
<!-- Машинный код&#45;&gt;ВМ -->
<g id="edge22" class="edge"><title>Машинный код&#45;&gt;ВМ</title>
<path fill="none" stroke="black" d="M372.568,-143.901C398.507,-133.785 431.757,-120.535 461,-108 463.059,-107.117 465.175,-106.193 467.303,-105.25"/>
<polygon fill="black" stroke="black" points="468.884,-108.377 476.562,-101.076 466.007,-101.995 468.884,-108.377"/>
</g>
<!-- Библиотеки байт&#45;кода -->
<g id="node4" class="node"><title>Библиотеки байт&#45;кода</title>
<polygon fill="none" stroke="black" points="182,-180 22,-180 22,-144 182,-144 182,-180"/>
<text text-anchor="middle" x="102" y="-158.3" font-family="Helvetica,sans-Serif" font-size="14.00">Библиотеки байт&#45;кода</text>
</g>
<!-- Библиотеки байт&#45;кода&#45;&gt;Менеджер библиотек -->
<g id="edge8" class="edge"><title>Библиотеки байт&#45;кода&#45;&gt;Менеджер библиотек</title>
<path fill="none" stroke="black" d="M107.895,-180.104C108.701,-187.791 108.937,-197.054 108.604,-205.665"/>
<polygon fill="black" stroke="black" points="105.109,-205.48 107.916,-215.697 112.092,-205.96 105.109,-205.48"/>
</g>
<!-- Библиотеки машинного кода -->
<g id="node5" class="node"><title>Библиотеки машинного кода</title>
<polygon fill="none" stroke="black" points="429,-36 227,-36 227,-0 429,-0 429,-36"/>
<text text-anchor="middle" x="328" y="-14.3" font-family="Helvetica,sans-Serif" font-size="14.00">Библиотеки машинного кода</text>
</g>
<!-- Библиотеки машинного кода&#45;&gt;Менеджер AOT библиотек -->
<g id="edge14" class="edge"><title>Библиотеки машинного кода&#45;&gt;Менеджер AOT библиотек</title>
<path fill="none" stroke="black" d="M333.895,-36.1043C334.701,-43.7913 334.937,-53.0537 334.604,-61.6651"/>
<polygon fill="black" stroke="black" points="331.109,-61.4805 333.916,-71.6966 338.092,-61.9597 331.109,-61.4805"/>
</g>
<!-- «Настоящий» машинный код -->
<g id="node6" class="node"><title>«Настоящий» машинный код</title>
<polygon fill="none" stroke="black" points="692.25,-180 489.75,-180 489.75,-144 692.25,-144 692.25,-180"/>
<text text-anchor="middle" x="591" y="-158.3" font-family="Helvetica,sans-Serif" font-size="14.00">«Настоящий» машинный код</text>
</g>
<!-- «Настоящий» машинный код&#45;&gt;ВМ -->
<g id="edge24" class="edge"><title>«Настоящий» машинный код&#45;&gt;ВМ</title>
<path fill="none" stroke="black" d="M568.011,-143.697C554.47,-133.504 537.319,-120.595 523.381,-110.104"/>
<polygon fill="black" stroke="black" points="525.274,-107.148 515.18,-103.931 521.064,-112.741 525.274,-107.148"/>
</g>
<!-- Компилятор&#45;&gt;Байт&#45;код -->
<g id="edge3" class="edge"><title>Компилятор&#45;&gt;Байт&#45;код</title>
<path fill="none" stroke="black" d="M215,-359.697C215,-351.983 215,-342.712 215,-334.112"/>
<polygon fill="black" stroke="black" points="218.5,-334.104 215,-324.104 211.5,-334.104 218.5,-334.104"/>
</g>
<!-- Менеджер библиотек&#45;&gt;Байт&#45;код -->
<g id="edge9" class="edge"><title>Менеджер библиотек&#45;&gt;Байт&#45;код</title>
<path fill="none" stroke="black" d="M133.993,-251.226C149.85,-260.41 168.822,-272.044 184.472,-282.14"/>
<polygon fill="black" stroke="black" points="182.968,-285.338 193.254,-287.876 186.796,-279.477 182.968,-285.338"/>
</g>
<!-- Менеджер библиотек&#45;&gt;Библиотеки байт&#45;кода -->
<g id="edge6" class="edge"><title>Менеджер библиотек&#45;&gt;Библиотеки байт&#45;кода</title>
<path fill="none" stroke="black" d="M96.0843,-215.697C95.2886,-207.983 95.0621,-198.712 95.4047,-190.112"/>
<polygon fill="black" stroke="black" points="98.8984,-190.324 96.105,-180.104 91.9154,-189.836 98.8984,-190.324"/>
</g>
<!-- Менеджер AOT библиотек&#45;&gt;Машинный код -->
<g id="edge15" class="edge"><title>Менеджер AOT библиотек&#45;&gt;Машинный код</title>
<path fill="none" stroke="black" d="M333.895,-108.104C334.701,-115.791 334.937,-125.054 334.604,-133.665"/>
<polygon fill="black" stroke="black" points="331.109,-133.48 333.916,-143.697 338.092,-133.96 331.109,-133.48"/>
</g>
<!-- Менеджер AOT библиотек&#45;&gt;Библиотеки машинного кода -->
<g id="edge12" class="edge"><title>Менеджер AOT библиотек&#45;&gt;Библиотеки машинного кода</title>
<path fill="none" stroke="black" d="M322.084,-71.6966C321.289,-63.9827 321.062,-54.7125 321.405,-46.1124"/>
<polygon fill="black" stroke="black" points="324.898,-46.3243 322.105,-36.1043 317.915,-45.8356 324.898,-46.3243"/>
</g>
<!-- Компилятор байт&#45;кода&#45;&gt;Машинный код -->
<g id="edge18" class="edge"><title>Компилятор байт&#45;кода&#45;&gt;Машинный код</title>
<path fill="none" stroke="black" d="M328,-215.697C328,-207.983 328,-198.712 328,-190.112"/>
<polygon fill="black" stroke="black" points="331.5,-190.104 328,-180.104 324.5,-190.104 331.5,-190.104"/>
</g>
</g>
</svg>
