<?xml version="1.0" encoding="UTF-8" standalone="no"?>
<!DOCTYPE svg PUBLIC "-//W3C//DTD SVG 1.1//EN"
 "http://www.w3.org/Graphics/SVG/1.1/DTD/svg11.dtd">
<!-- Generated by graphviz version 2.28.0 (20110507.0327)
 -->
<!-- Title: G Pages: 1 -->
<svg width="720pt" height="477pt"
 viewBox="0.00 0.00 720.00 477.25" xmlns="http://www.w3.org/2000/svg" xmlns:xlink="http://www.w3.org/1999/xlink">
<g id="graph1" class="graph" transform="scale(0.825688 0.825688) rotate(0) translate(4 574)">
<title>G</title>
<polygon fill="white" stroke="white" points="-4,5 -4,-574 869,-574 869,5 -4,5"/>
<!-- 5. ЯВУ -->
<g id="node1" class="node"><title>5. ЯВУ</title>
<ellipse fill="none" stroke="black" cx="756" cy="-478" rx="39.9464" ry="18"/>
<text text-anchor="middle" x="756" y="-474.3" font-family="Helvetica,sans-Serif" font-size="14.00">5. ЯВУ</text>
</g>
<!-- 4. Ассемблер -->
<g id="node3" class="node"><title>4. Ассемблер</title>
<ellipse fill="none" stroke="black" cx="625" cy="-389" rx="69.3156" ry="18"/>
<text text-anchor="middle" x="625" y="-385.3" font-family="Helvetica,sans-Serif" font-size="14.00">4. Ассемблер</text>
</g>
<!-- 5. ЯВУ&#45;&gt;4. Ассемблер -->
<g id="edge2" class="edge"><title>5. ЯВУ&#45;&gt;4. Ассемблер</title>
<path fill="none" stroke="black" d="M725.523,-466.069C719.413,-463.979 713.021,-461.863 707,-460 677.954,-451.012 662.843,-463.15 641,-442 634.196,-435.412 630.268,-426.008 628.006,-417.004"/>
<polygon fill="black" stroke="black" points="631.44,-416.328 626.096,-407.18 624.569,-417.664 631.44,-416.328"/>
<text text-anchor="middle" x="691.5" y="-430.3" font-family="Helvetica,sans-Serif" font-size="14.00">Трансляция ВТ</text>
</g>
<!-- 3. Машинный код, исполняющийся\n в контексте ОС -->
<g id="node5" class="node"><title>3. Машинный код, исполняющийся\n в контексте ОС</title>
<ellipse fill="none" stroke="black" cx="620" cy="-291" rx="168.498" ry="26.7407"/>
<text text-anchor="middle" x="620" y="-294.8" font-family="Helvetica,sans-Serif" font-size="14.00">3. Машинный код, исполняющийся</text>
<text text-anchor="middle" x="620" y="-279.8" font-family="Helvetica,sans-Serif" font-size="14.00"> в контексте ОС</text>
</g>
<!-- 5. ЯВУ&#45;&gt;3. Машинный код, исполняющийся\n в контексте ОС -->
<g id="edge4" class="edge"><title>5. ЯВУ&#45;&gt;3. Машинный код, исполняющийся\n в контексте ОС</title>
<path fill="none" stroke="black" d="M759.658,-459.701C764.709,-430.798 770.27,-372.289 742,-336 736.729,-329.234 730.325,-323.507 723.243,-318.66"/>
<polygon fill="black" stroke="black" points="724.994,-315.628 714.643,-313.364 721.323,-321.588 724.994,-315.628"/>
<text text-anchor="middle" x="813.5" y="-385.3" font-family="Helvetica,sans-Serif" font-size="14.00">Трансляция ВТ</text>
</g>
<!-- 4. Ассемблер&#45;&gt;3. Машинный код, исполняющийся\n в контексте ОС -->
<g id="edge6" class="edge"><title>4. Ассемблер&#45;&gt;3. Машинный код, исполняющийся\n в контексте ОС</title>
<path fill="none" stroke="black" d="M622.758,-370.816C622.07,-364.867 621.392,-358.15 621,-352 620.507,-344.265 620.216,-335.958 620.051,-328.065"/>
<polygon fill="black" stroke="black" points="623.55,-327.957 619.901,-318.011 616.551,-328.062 623.55,-327.957"/>
<text text-anchor="middle" x="681.5" y="-340.3" font-family="Helvetica,sans-Serif" font-size="14.00">Ассемблирование</text>
</g>
<!-- 2. Архитектура команд -->
<g id="node8" class="node"><title>2. Архитектура команд</title>
<ellipse fill="none" stroke="black" cx="393" cy="-194" rx="106.386" ry="18"/>
<text text-anchor="middle" x="393" y="-190.3" font-family="Helvetica,sans-Serif" font-size="14.00">2. Архитектура команд</text>
</g>
<!-- 3. Машинный код, исполняющийся\n в контексте ОС&#45;&gt;2. Архитектура команд -->
<g id="edge8" class="edge"><title>3. Машинный код, исполняющийся\n в контексте ОС&#45;&gt;2. Архитектура команд</title>
<path fill="none" stroke="black" d="M561.837,-265.659C524.254,-249.93 475.954,-229.716 440.65,-214.941"/>
<polygon fill="black" stroke="black" points="441.632,-211.559 431.056,-210.927 438.93,-218.016 441.632,-211.559"/>
<text text-anchor="middle" x="598" y="-234.3" font-family="Helvetica,sans-Serif" font-size="14.00">Частичная интерпретация</text>
</g>
<!-- 1. Микроархитектурный уровень -->
<g id="node10" class="node"><title>1. Микроархитектурный уровень</title>
<ellipse fill="none" stroke="black" cx="207" cy="-92" rx="148.256" ry="18"/>
<text text-anchor="middle" x="207" y="-88.3" font-family="Helvetica,sans-Serif" font-size="14.00">1. Микроархитектурный уровень</text>
</g>
<!-- 2. Архитектура команд&#45;&gt;1. Микроархитектурный уровень -->
<g id="edge10" class="edge"><title>2. Архитектура команд&#45;&gt;1. Микроархитектурный уровень</title>
<path fill="none" stroke="black" d="M362.702,-176.711C331.14,-159.742 281.544,-133.078 246.831,-114.415"/>
<polygon fill="black" stroke="black" points="248.37,-111.268 237.905,-109.616 245.055,-117.434 248.37,-111.268"/>
<text text-anchor="middle" x="437.5" y="-146.8" font-family="Helvetica,sans-Serif" font-size="14.00">Исполнение или</text>
<text text-anchor="middle" x="437.5" y="-131.8" font-family="Helvetica,sans-Serif" font-size="14.00">интерпретация микропрограммой</text>
</g>
<!-- 0. Цифровой логический уровень -->
<g id="node12" class="node"><title>0. Цифровой логический уровень</title>
<ellipse fill="none" stroke="black" cx="207" cy="-18" rx="154.055" ry="18"/>
<text text-anchor="middle" x="207" y="-14.3" font-family="Helvetica,sans-Serif" font-size="14.00">0. Цифровой логический уровень</text>
</g>
<!-- 1. Микроархитектурный уровень&#45;&gt;0. Цифровой логический уровень -->
<g id="edge12" class="edge"><title>1. Микроархитектурный уровень&#45;&gt;0. Цифровой логический уровень</title>
<path fill="none" stroke="black" d="M207,-73.937C207,-65.8072 207,-55.8761 207,-46.7047"/>
<polygon fill="black" stroke="black" points="210.5,-46.4406 207,-36.4407 203.5,-46.4407 210.5,-46.4406"/>
</g>
<!-- Алгоритмическая программа -->
<g id="node13" class="node"><title>Алгоритмическая программа</title>
<text text-anchor="middle" x="756" y="-548.3" font-family="Helvetica,sans-Serif" font-size="14.00">Алгоритмическая программа</text>
</g>
<!-- Алгоритмическая программа&#45;&gt;5. ЯВУ -->
<g id="edge14" class="edge"><title>Алгоритмическая программа&#45;&gt;5. ЯВУ</title>
<path fill="none" stroke="black" d="M756,-533.937C756,-522.626 756,-507.828 756,-496.441"/>
</g>
<!-- Оттранслированная программа -->
<g id="node15" class="node"><title>Оттранслированная программа</title>
<text text-anchor="middle" x="587" y="-474.3" font-family="Helvetica,sans-Serif" font-size="14.00">Оттранслированная программа</text>
</g>
<!-- Оттранслированная программа&#45;&gt;4. Ассемблер -->
<g id="edge16" class="edge"><title>Оттранслированная программа&#45;&gt;4. Ассемблер</title>
<path fill="none" stroke="black" d="M593.786,-459.909C597.798,-449.962 603.048,-437.212 608,-426 610.737,-419.804 613.869,-413.076 616.694,-407.132"/>
</g>
<!-- Дополнительные команды,\nмногозадачность, защита, УВВ -->
<g id="node17" class="node"><title>Дополнительные команды,\nмногозадачность, защита, УВВ</title>
<text text-anchor="middle" x="427" y="-392.8" font-family="Helvetica,sans-Serif" font-size="14.00">Дополнительные команды,</text>
<text text-anchor="middle" x="427" y="-377.8" font-family="Helvetica,sans-Serif" font-size="14.00">многозадачность, защита, УВВ</text>
</g>
<!-- Дополнительные команды,\nмногозадачность, защита, УВВ&#45;&gt;3. Машинный код, исполняющийся\n в контексте ОС -->
<g id="edge18" class="edge"><title>Дополнительные команды,\nмногозадачность, защита, УВВ&#45;&gt;3. Машинный код, исполняющийся\n в контексте ОС</title>
<path fill="none" stroke="black" d="M463.302,-369.943C493.439,-354.952 536.62,-333.474 570.023,-316.859"/>
</g>
<!-- Набор и свойства машинных команд -->
<g id="node19" class="node"><title>Набор и свойства машинных команд</title>
<text text-anchor="middle" x="306" y="-287.3" font-family="Helvetica,sans-Serif" font-size="14.00">Набор и свойства машинных команд</text>
</g>
<!-- Набор и свойства машинных команд&#45;&gt;2. Архитектура команд -->
<g id="edge20" class="edge"><title>Набор и свойства машинных команд&#45;&gt;2. Архитектура команд</title>
<path fill="none" stroke="black" d="M321.957,-272.576C337.753,-255.327 361.78,-229.091 377.437,-211.994"/>
</g>
<!-- Набор регистров и АЛУ &#45; тракт данных -->
<g id="node21" class="node"><title>Набор регистров и АЛУ &#45; тракт данных</title>
<text text-anchor="middle" x="134" y="-190.3" font-family="Helvetica,sans-Serif" font-size="14.00">Набор регистров и АЛУ &#45; тракт данных</text>
</g>
<!-- Набор регистров и АЛУ &#45; тракт данных&#45;&gt;1. Микроархитектурный уровень -->
<g id="edge22" class="edge"><title>Набор регистров и АЛУ &#45; тракт данных&#45;&gt;1. Микроархитектурный уровень</title>
<path fill="none" stroke="black" d="M146.716,-175.581C160.114,-157.227 181.087,-128.498 194.43,-110.219"/>
</g>
</g>
</svg>
