<?xml version="1.0" encoding="UTF-8" standalone="no"?>
<!DOCTYPE svg PUBLIC "-//W3C//DTD SVG 1.1//EN"
 "http://www.w3.org/Graphics/SVG/1.1/DTD/svg11.dtd">
<!-- Generated by graphviz version 2.38.0 (20140413.2041)
 -->
<!-- Title: G Pages: 1 -->
<svg width="886pt" height="548pt"
 viewBox="0.00 0.00 885.50 548.00" xmlns="http://www.w3.org/2000/svg" xmlns:xlink="http://www.w3.org/1999/xlink">
<g id="graph0" class="graph" transform="scale(1 1) rotate(0) translate(4 544)">
<title>G</title>
<polygon fill="white" stroke="none" points="-4,4 -4,-544 881.5,-544 881.5,4 -4,4"/>
<!-- source -->
<g id="node1" class="node"><title>source</title>
<polygon fill="none" stroke="black" points="283.5,-540 174.5,-540 174.5,-504 283.5,-504 283.5,-540"/>
<text text-anchor="middle" x="229" y="-518.3" font-family="Times New Roman,serif" font-size="14.00"> Исходный код</text>
</g>
<!-- prepro -->
<g id="node13" class="node"><title>prepro</title>
<ellipse fill="none" stroke="black" cx="295" cy="-450" rx="67.6881" ry="18"/>
<text text-anchor="middle" x="295" y="-446.3" font-family="Times New Roman,serif" font-size="14.00">Препроцессор</text>
</g>
<!-- source&#45;&gt;prepro -->
<g id="edge1" class="edge"><title>source&#45;&gt;prepro</title>
<path fill="none" stroke="black" d="M245.315,-503.697C253.426,-495.093 263.363,-484.554 272.213,-475.168"/>
<polygon fill="black" stroke="black" points="275.014,-477.299 279.328,-467.622 269.921,-472.497 275.014,-477.299"/>
</g>
<!-- headers -->
<g id="node2" class="node"><title>headers</title>
<polygon fill="none" stroke="black" points="448,-540 302,-540 302,-504 448,-504 448,-540"/>
<text text-anchor="middle" x="375" y="-518.3" font-family="Times New Roman,serif" font-size="14.00">Заголовочные файлы</text>
</g>
<!-- headers&#45;&gt;prepro -->
<g id="edge2" class="edge"><title>headers&#45;&gt;prepro</title>
<path fill="none" stroke="black" d="M355.225,-503.697C345.023,-494.77 332.439,-483.759 321.417,-474.115"/>
<polygon fill="black" stroke="black" points="323.554,-471.334 313.723,-467.383 318.944,-476.602 323.554,-471.334"/>
</g>
<!-- prepsrc -->
<g id="node3" class="node"><title>prepsrc</title>
<polygon fill="none" stroke="black" points="386,-396 204,-396 204,-360 386,-360 386,-396"/>
<text text-anchor="middle" x="295" y="-374.3" font-family="Times New Roman,serif" font-size="14.00">Препроцессированный код</text>
</g>
<!-- lexer -->
<g id="node14" class="node"><title>lexer</title>
<ellipse fill="none" stroke="black" cx="295" cy="-306" rx="142.175" ry="18"/>
<text text-anchor="middle" x="295" y="-302.3" font-family="Times New Roman,serif" font-size="14.00">Лексический анализатор (сканер)</text>
</g>
<!-- prepsrc&#45;&gt;lexer -->
<g id="edge4" class="edge"><title>prepsrc&#45;&gt;lexer</title>
<path fill="none" stroke="black" d="M295,-359.697C295,-351.983 295,-342.712 295,-334.112"/>
<polygon fill="black" stroke="black" points="298.5,-334.104 295,-324.104 291.5,-334.104 298.5,-334.104"/>
</g>
<!-- lexemes -->
<g id="node4" class="node"><title>lexemes</title>
<polygon fill="none" stroke="black" points="186,-252 0,-252 0,-216 186,-216 186,-252"/>
<text text-anchor="middle" x="93" y="-230.3" font-family="Times New Roman,serif" font-size="14.00">Поcледовательность лексем</text>
</g>
<!-- parser -->
<g id="node15" class="node"><title>parser</title>
<ellipse fill="none" stroke="black" cx="149" cy="-162" rx="121.578" ry="18"/>
<text text-anchor="middle" x="149" y="-158.3" font-family="Times New Roman,serif" font-size="14.00">Синтаксический анализатор</text>
</g>
<!-- lexemes&#45;&gt;parser -->
<g id="edge8" class="edge"><title>lexemes&#45;&gt;parser</title>
<path fill="none" stroke="black" d="M106.843,-215.697C113.489,-207.389 121.578,-197.277 128.887,-188.141"/>
<polygon fill="black" stroke="black" points="131.803,-190.099 135.317,-180.104 126.336,-185.727 131.803,-190.099"/>
</g>
<!-- prech -->
<g id="node5" class="node"><title>prech</title>
<polygon fill="none" stroke="grey" points="419.5,-252 204.5,-252 204.5,-216 419.5,-216 419.5,-252"/>
<text text-anchor="middle" x="312" y="-230.3" font-family="Times New Roman,serif" font-size="14.00">Прекомпилированные заголовки</text>
</g>
<!-- prech&#45;&gt;lexer -->
<g id="edge7" class="edge"><title>prech&#45;&gt;lexer</title>
<path fill="none" stroke="black" d="M313.741,-252.104C312.668,-259.876 310.622,-269.257 308.162,-277.949"/>
<polygon fill="black" stroke="black" points="304.758,-277.108 305.118,-287.697 311.44,-279.195 304.758,-277.108"/>
</g>
<!-- tree -->
<g id="node6" class="node"><title>tree</title>
<polygon fill="none" stroke="black" points="310,-108 74,-108 74,-72 310,-72 310,-108"/>
<text text-anchor="middle" x="192" y="-86.3" font-family="Times New Roman,serif" font-size="14.00">Дерево и вспомогательные таблицы</text>
</g>
<!-- pretranslator -->
<g id="node16" class="node"><title>pretranslator</title>
<ellipse fill="none" stroke="grey" cx="121" cy="-18" rx="70.3881" ry="18"/>
<text text-anchor="middle" x="121" y="-14.3" font-family="Times New Roman,serif" font-size="14.00">Претранслятор</text>
</g>
<!-- tree&#45;&gt;pretranslator -->
<g id="edge10" class="edge"><title>tree&#45;&gt;pretranslator</title>
<path fill="none" stroke="black" d="M168.534,-71.6966C159.061,-63.2198 148.37,-52.8636 139.457,-43.5826"/>
<polygon fill="black" stroke="black" points="141.844,-41.011 132.454,-36.1043 136.734,-45.7959 141.844,-41.011"/>
</g>
<!-- optimizer -->
<g id="node17" class="node"><title>optimizer</title>
<ellipse fill="none" stroke="black" cx="273" cy="-18" rx="63.8893" ry="18"/>
<text text-anchor="middle" x="273" y="-14.3" font-family="Times New Roman,serif" font-size="14.00">Оптимизатор</text>
</g>
<!-- tree&#45;&gt;optimizer -->
<g id="edge12" class="edge"><title>tree&#45;&gt;optimizer</title>
<path fill="none" stroke="black" d="M206.107,-71.6966C215.745,-62.5518 228.715,-51.2196 240.723,-41.4099"/>
<polygon fill="black" stroke="black" points="243.219,-43.8946 248.829,-34.9073 238.839,-38.4342 243.219,-43.8946"/>
</g>
<!-- generator -->
<g id="node18" class="node"><title>generator</title>
<ellipse fill="none" stroke="black" cx="462" cy="-18" rx="51.1914" ry="18"/>
<text text-anchor="middle" x="462" y="-14.3" font-family="Times New Roman,serif" font-size="14.00">Генератор</text>
</g>
<!-- tree&#45;&gt;generator -->
<g id="edge14" class="edge"><title>tree&#45;&gt;generator</title>
<path fill="none" stroke="black" d="M257.704,-71.9656C305.348,-59.6134 368.791,-43.1654 412.263,-31.8946"/>
<polygon fill="black" stroke="black" points="413.24,-35.2572 422.042,-29.3595 411.484,-28.4812 413.24,-35.2572"/>
</g>
<!-- asm -->
<g id="node7" class="node"><title>asm</title>
<polygon fill="none" stroke="black" points="686.5,-540 555.5,-540 555.5,-504 686.5,-504 686.5,-540"/>
<text text-anchor="middle" x="621" y="-518.3" font-family="Times New Roman,serif" font-size="14.00">Код на ассемблере</text>
</g>
<!-- assembler -->
<g id="node19" class="node"><title>assembler</title>
<ellipse fill="none" stroke="black" cx="733" cy="-450" rx="53.8905" ry="18"/>
<text text-anchor="middle" x="733" y="-446.3" font-family="Times New Roman,serif" font-size="14.00">Ассемблер</text>
</g>
<!-- asm&#45;&gt;assembler -->
<g id="edge16" class="edge"><title>asm&#45;&gt;assembler</title>
<path fill="none" stroke="black" d="M648.398,-503.876C663.917,-494.177 683.44,-481.975 699.821,-471.737"/>
<polygon fill="black" stroke="black" points="701.928,-474.547 708.553,-466.279 698.218,-468.611 701.928,-474.547"/>
</g>
<!-- obj -->
<g id="node8" class="node"><title>obj</title>
<polygon fill="none" stroke="black" points="877.5,-396 766.5,-396 766.5,-360 877.5,-360 877.5,-396"/>
<text text-anchor="middle" x="822" y="-374.3" font-family="Times New Roman,serif" font-size="14.00">Объектный код</text>
</g>
<!-- linker -->
<g id="node20" class="node"><title>linker</title>
<ellipse fill="none" stroke="black" cx="693" cy="-306" rx="75.2868" ry="18"/>
<text text-anchor="middle" x="693" y="-302.3" font-family="Times New Roman,serif" font-size="14.00">Редактор связей</text>
</g>
<!-- obj&#45;&gt;linker -->
<g id="edge18" class="edge"><title>obj&#45;&gt;linker</title>
<path fill="none" stroke="black" d="M790.443,-359.876C772.495,-350.137 749.894,-337.873 730.979,-327.609"/>
<polygon fill="black" stroke="black" points="732.484,-324.443 722.025,-322.75 729.146,-330.596 732.484,-324.443"/>
</g>
<!-- lib -->
<g id="node9" class="node"><title>lib</title>
<polygon fill="none" stroke="black" points="748.5,-396 493.5,-396 493.5,-360 748.5,-360 748.5,-396"/>
<text text-anchor="middle" x="621" y="-374.3" font-family="Times New Roman,serif" font-size="14.00">Объектный код статических библиотек</text>
</g>
<!-- lib&#45;&gt;linker -->
<g id="edge19" class="edge"><title>lib&#45;&gt;linker</title>
<path fill="none" stroke="black" d="M638.798,-359.697C647.824,-350.921 658.922,-340.132 668.72,-330.606"/>
<polygon fill="black" stroke="black" points="671.173,-333.103 675.903,-323.622 666.293,-328.084 671.173,-333.103"/>
</g>
<!-- exe -->
<g id="node10" class="node"><title>exe</title>
<polygon fill="none" stroke="black" points="870,-252 748,-252 748,-216 870,-216 870,-252"/>
<text text-anchor="middle" x="809" y="-230.3" font-family="Times New Roman,serif" font-size="14.00">Исполнимый код</text>
</g>
<!-- loader -->
<g id="node21" class="node"><title>loader</title>
<ellipse fill="none" stroke="black" cx="647" cy="-162" rx="50.8918" ry="18"/>
<text text-anchor="middle" x="647" y="-158.3" font-family="Times New Roman,serif" font-size="14.00">Загрузчик</text>
</g>
<!-- exe&#45;&gt;loader -->
<g id="edge22" class="edge"><title>exe&#45;&gt;loader</title>
<path fill="none" stroke="black" d="M769.37,-215.876C744.369,-205.073 712.18,-191.164 687.091,-180.323"/>
<polygon fill="black" stroke="black" points="688.421,-177.085 677.853,-176.332 685.644,-183.511 688.421,-177.085"/>
</g>
<!-- dll -->
<g id="node11" class="node"><title>dll</title>
<polygon fill="none" stroke="black" points="729.5,-252 550.5,-252 550.5,-216 729.5,-216 729.5,-252"/>
<text text-anchor="middle" x="640" y="-230.3" font-family="Times New Roman,serif" font-size="14.00">Динамические библиотеки</text>
</g>
<!-- dll&#45;&gt;loader -->
<g id="edge23" class="edge"><title>dll&#45;&gt;loader</title>
<path fill="none" stroke="black" d="M641.73,-215.697C642.502,-207.983 643.429,-198.712 644.289,-190.112"/>
<polygon fill="black" stroke="black" points="647.777,-190.403 645.29,-180.104 640.812,-189.706 647.777,-190.403"/>
</g>
<!-- process -->
<g id="node12" class="node"><title>process</title>
<polygon fill="none" stroke="black" points="728.5,-108 565.5,-108 565.5,-72 728.5,-72 728.5,-108"/>
<text text-anchor="middle" x="647" y="-86.3" font-family="Times New Roman,serif" font-size="14.00">Образ прцесса в памяти</text>
</g>
<!-- execution -->
<g id="node22" class="node"><title>execution</title>
<ellipse fill="none" stroke="black" cx="647" cy="-18" rx="63.0888" ry="18"/>
<text text-anchor="middle" x="647" y="-14.3" font-family="Times New Roman,serif" font-size="14.00">Вычислитель</text>
</g>
<!-- process&#45;&gt;execution -->
<g id="edge25" class="edge"><title>process&#45;&gt;execution</title>
<path fill="none" stroke="black" d="M647,-71.6966C647,-63.9827 647,-54.7125 647,-46.1124"/>
<polygon fill="black" stroke="black" points="650.5,-46.1043 647,-36.1043 643.5,-46.1044 650.5,-46.1043"/>
</g>
<!-- prepro&#45;&gt;prepsrc -->
<g id="edge3" class="edge"><title>prepro&#45;&gt;prepsrc</title>
<path fill="none" stroke="black" d="M295,-431.697C295,-423.983 295,-414.712 295,-406.112"/>
<polygon fill="black" stroke="black" points="298.5,-406.104 295,-396.104 291.5,-406.104 298.5,-406.104"/>
</g>
<!-- lexer&#45;&gt;lexemes -->
<g id="edge5" class="edge"><title>lexer&#45;&gt;lexemes</title>
<path fill="none" stroke="black" d="M248.657,-288.941C219.964,-278.997 182.848,-266.135 152.057,-255.465"/>
<polygon fill="black" stroke="black" points="152.895,-252.052 142.301,-252.084 150.603,-258.666 152.895,-252.052"/>
</g>
<!-- lexer&#45;&gt;prech -->
<g id="edge6" class="edge"><title>lexer&#45;&gt;prech</title>
<path fill="none" stroke="black" d="M293.287,-287.697C294.376,-279.898 296.434,-270.509 298.901,-261.829"/>
<polygon fill="black" stroke="black" points="302.298,-262.694 301.951,-252.104 295.618,-260.598 302.298,-262.694"/>
</g>
<!-- parser&#45;&gt;tree -->
<g id="edge9" class="edge"><title>parser&#45;&gt;tree</title>
<path fill="none" stroke="black" d="M159.409,-144.055C164.405,-135.922 170.501,-125.998 176.064,-116.943"/>
<polygon fill="black" stroke="black" points="179.136,-118.628 181.388,-108.275 173.172,-114.964 179.136,-118.628"/>
</g>
<!-- pretranslator&#45;&gt;tree -->
<g id="edge11" class="edge"><title>pretranslator&#45;&gt;tree</title>
<path fill="none" stroke="black" d="M143.166,-35.1446C152.895,-43.7752 164.092,-54.5863 173.385,-64.253"/>
<polygon fill="black" stroke="black" points="170.972,-66.7961 180.365,-71.6966 176.078,-62.0079 170.972,-66.7961"/>
</g>
<!-- optimizer&#45;&gt;tree -->
<g id="edge13" class="edge"><title>optimizer&#45;&gt;tree</title>
<path fill="none" stroke="black" d="M259.609,-35.6223C250.344,-44.4606 237.788,-55.4815 225.96,-65.2104"/>
<polygon fill="black" stroke="black" points="223.514,-62.6875 217.938,-71.6966 227.915,-68.1309 223.514,-62.6875"/>
</g>
<!-- generator&#45;&gt;asm -->
<g id="edge15" class="edge"><title>generator&#45;&gt;asm</title>
<path fill="none" stroke="black" d="M462.593,-36.0468C463.467,-62.7026 465,-115.875 465,-161 465,-379 465,-379 465,-379 465,-436.39 523.453,-476.727 568.798,-499.385"/>
<polygon fill="black" stroke="black" points="567.433,-502.613 577.959,-503.816 570.481,-496.311 567.433,-502.613"/>
</g>
<!-- assembler&#45;&gt;obj -->
<g id="edge17" class="edge"><title>assembler&#45;&gt;obj</title>
<path fill="none" stroke="black" d="M753.195,-433.116C764.723,-424.049 779.389,-412.514 792.217,-402.425"/>
<polygon fill="black" stroke="black" points="794.633,-404.977 800.33,-396.044 790.306,-399.475 794.633,-404.977"/>
</g>
<!-- linker&#45;&gt;exe -->
<g id="edge20" class="edge"><title>linker&#45;&gt;exe</title>
<path fill="none" stroke="black" d="M719.322,-289.116C734.919,-279.704 754.925,-267.632 772.082,-257.278"/>
<polygon fill="black" stroke="black" points="774.002,-260.208 780.755,-252.044 770.385,-254.214 774.002,-260.208"/>
</g>
<!-- linker&#45;&gt;dll -->
<g id="edge21" class="edge"><title>linker&#45;&gt;dll</title>
<path fill="none" stroke="black" d="M680.17,-288.055C673.884,-279.753 666.185,-269.584 659.215,-260.378"/>
<polygon fill="black" stroke="black" points="661.907,-258.135 653.08,-252.275 656.326,-262.361 661.907,-258.135"/>
</g>
<!-- loader&#45;&gt;process -->
<g id="edge24" class="edge"><title>loader&#45;&gt;process</title>
<path fill="none" stroke="black" d="M647,-143.697C647,-135.983 647,-126.712 647,-118.112"/>
<polygon fill="black" stroke="black" points="650.5,-118.104 647,-108.104 643.5,-118.104 650.5,-118.104"/>
</g>
</g>
</svg>
