<?xml version="1.0" encoding="UTF-8" standalone="no"?>
<!-- Created by diasvg.py -->
<svg width="8.705cm" height="6.169cm" viewBox="1.450 1.395 10.155 7.565"
 xmlns="http://www.w3.org/2000/svg"
 xmlns:xlink="http://www.w3.org/1999/xlink">
<path stroke="#000000" fill="none" stroke-width="0.100"  d="M 2.500,3.500 L 2.500,4.100 C 3.000,4.025 3.500,3.950 3.500,4.325 C 3.500,4.700 2.500,4.775 2.500,4.550 C 2.500,4.325 3.500,4.400 3.500,4.775 C 3.500,5.150 2.500,5.225 2.500,5.000 C 2.500,4.775 3.500,4.850 3.500,5.225 C 3.500,5.600 2.500,5.675 2.500,5.450 C 2.500,5.225 3.500,5.300 3.500,5.675 C 3.500,6.050 2.750,5.975 2.500,5.900 L 2.500,6.500 "/>
<line x1="3.000" y1="2.700" x2="3.000" y2="6.000" stroke="#000000" stroke-width="0.100" />
<line x1="1.875" y1="3.500" x2="2.500" y2="3.500" stroke="#000000" stroke-width="0.100" />
<line x1="1.500" y1="6.500" x2="2.276" y2="6.500" stroke="#000000" stroke-width="0.100" />
<polyline fill="none" stroke="#000000" stroke-width="0.100"  points="1.888,6.750 2.388,6.500 1.888,6.250 "/>
<line x1="2.000" y1="2.500" x2="2.600" y2="2.500" stroke="#000000" stroke-width="0.100" />
<polyline fill="none" stroke="#000000" stroke-width="0.100"  points="4.000,2.500 3.400,2.500 2.600,2.900 "/>
<line x1="2.500" y1="3.500" x2="2.500" y2="3.000" stroke="#000000" stroke-width="0.100" />
<line x1="2.250" y1="3.000" x2="2.750" y2="3.000" stroke="#000000" stroke-width="0.100" />
<line x1="1.875" y1="3.500" x2="1.875" y2="3.875" stroke="#000000" stroke-width="0.100" />
<line x1="1.500" y1="3.875" x2="2.250" y2="3.875" stroke="#000000" stroke-width="0.100" />
<line x1="1.626" y1="4.062" x2="2.124" y2="4.062" stroke="#000000" stroke-width="0.100" />
<line x1="1.751" y1="4.250" x2="1.999" y2="4.250" stroke="#000000" stroke-width="0.100" />
<text x="1.500" y="3.000"  fill="#000000" text-anchor="start" font-size="0.80" font-family="sans" font-style="normal" font-weight="400">
+</text>
<line x1="1.500" y1="2.500" x2="2.000" y2="2.500" stroke="#000000" stroke-width="0.100" />
<line x1="4.000" y1="2.500" x2="4.276" y2="2.500" stroke="#000000" stroke-width="0.100" />
<polyline fill="none" stroke="#000000" stroke-width="0.100"  points="3.888,2.750 4.388,2.500 3.888,2.250 "/>
<line x1="7.343" y1="5.765" x2="8.093" y2="5.765" stroke="#000000" stroke-width="0.100" />
<line x1="8.093" y1="5.015" x2="8.093" y2="6.515" stroke="#000000" stroke-width="0.100" />
<line x1="8.093" y1="5.265" x2="8.843" y2="4.765" stroke="#000000" stroke-width="0.100" />
<line x1="8.093" y1="6.265" x2="8.843" y2="6.765" stroke="#000000" stroke-width="0.100" />
<polyline fill="none" stroke="#000000" stroke-width="0.100"  points="8.593,6.765 8.843,6.765 8.747,6.534 "/>
<line x1="8.793" y1="6.765" x2="8.793" y2="7.140" stroke="#000000" stroke-width="0.100" />
<line x1="8.293" y1="7.140" x2="9.293" y2="7.140" stroke="#000000" stroke-width="0.100" />
<line x1="8.460" y1="7.327" x2="9.125" y2="7.327" stroke="#000000" stroke-width="0.100" />
<line x1="8.628" y1="7.515" x2="8.958" y2="7.515" stroke="#000000" stroke-width="0.100" />
<line x1="5.993" y1="4.765" x2="7.144" y2="4.744" stroke="#000000" stroke-width="0.100" />
<polyline fill="none" stroke="#000000" stroke-width="0.100"  points="6.761,5.001 7.256,4.742 6.752,4.501 "/>
<text x="8.018" y="1.990"  fill="#000000" text-anchor="start" font-size="0.80" font-family="sans" font-style="normal" font-weight="400">
+</text>
<line x1="8.843" y1="4.765" x2="9.819" y2="4.765" stroke="#000000" stroke-width="0.100" />
<polyline fill="none" stroke="#000000" stroke-width="0.100"  points="9.431,5.015 9.931,4.765 9.431,4.515 "/>
<line x1="7.318" y1="3.690" x2="8.068" y2="3.690" stroke="#000000" stroke-width="0.100" />
<line x1="8.068" y1="4.440" x2="8.068" y2="2.940" stroke="#000000" stroke-width="0.100" />
<line x1="8.068" y1="4.190" x2="8.818" y2="4.690" stroke="#000000" stroke-width="0.100" />
<line x1="8.068" y1="3.190" x2="8.818" y2="2.690" stroke="#000000" stroke-width="0.100" />
<polyline fill="none" stroke="#000000" stroke-width="0.100"  points="8.318,3.190 8.068,3.190 8.164,2.959 "/>
<line x1="8.843" y1="2.015" x2="8.818" y2="2.690" stroke="#000000" stroke-width="0.100" />
<line x1="7.318" y1="3.690" x2="7.343" y2="5.765" stroke="#000000" stroke-width="0.100" />
</svg>