<?xml version="1.0" encoding="UTF-8" standalone="no"?>
<!DOCTYPE svg PUBLIC "-//W3C//DTD SVG 1.1//EN"
 "http://www.w3.org/Graphics/SVG/1.1/DTD/svg11.dtd">
<!-- Generated by graphviz version 2.38.0 (20140413.2041)
 -->
<!-- Title: G Pages: 1 -->
<svg width="471pt" height="409pt"
 viewBox="0.00 0.00 470.50 409.00" xmlns="http://www.w3.org/2000/svg" xmlns:xlink="http://www.w3.org/1999/xlink">
<g id="graph0" class="graph" transform="scale(1 1) rotate(0) translate(4 405)">
<title>G</title>
<polygon fill="white" stroke="none" points="-4,4 -4,-405 466.5,-405 466.5,4 -4,4"/>
<!--  Начальное грубое значение (может не быть) -->
<g id="node1" class="node"><title> Начальное грубое значение (может не быть)</title>
<polygon fill="none" stroke="blue" points="378,-401 89,-401 89,-365 378,-365 378,-401"/>
<text text-anchor="middle" x="233.5" y="-379.3" font-family="Times New Roman,serif" font-size="14.00"> Начальное грубое значение (может не быть)</text>
</g>
<!--  Управляющее устройство -->
<g id="node5" class="node"><title> Управляющее устройство</title>
<ellipse fill="none" stroke="black" cx="233.5" cy="-296" rx="115.08" ry="18"/>
<text text-anchor="middle" x="233.5" y="-292.3" font-family="Times New Roman,serif" font-size="14.00"> Управляющее устройство</text>
</g>
<!--  Начальное грубое значение (может не быть)&#45;&gt; Управляющее устройство -->
<g id="edge1" class="edge"><title> Начальное грубое значение (может не быть)&#45;&gt; Управляющее устройство</title>
<path fill="none" stroke="blue" d="M233.5,-364.799C233.5,-353.163 233.5,-337.548 233.5,-324.237"/>
<polygon fill="blue" stroke="blue" points="237,-324.175 233.5,-314.175 230,-324.175 237,-324.175"/>
<text text-anchor="middle" x="238.5" y="-335.8" font-family="Times New Roman,serif" font-size="14.00">Ц</text>
</g>
<!--  Аналоговый вход -->
<g id="node2" class="node"><title> Аналоговый вход</title>
<polygon fill="none" stroke="red" points="462.5,-124 334.5,-124 334.5,-88 462.5,-88 462.5,-124"/>
<text text-anchor="middle" x="398.5" y="-102.3" font-family="Times New Roman,serif" font-size="14.00"> Аналоговый вход</text>
</g>
<!--  Компаратор -->
<g id="node7" class="node"><title> Компаратор</title>
<ellipse fill="none" stroke="black" cx="306.5" cy="-18" rx="61.99" ry="18"/>
<text text-anchor="middle" x="306.5" y="-14.3" font-family="Times New Roman,serif" font-size="14.00"> Компаратор</text>
</g>
<!--  Аналоговый вход&#45;&gt; Компаратор -->
<g id="edge7" class="edge"><title> Аналоговый вход&#45;&gt; Компаратор</title>
<path fill="none" stroke="red" d="M379.882,-87.5966C366.022,-74.64 346.946,-56.8085 331.718,-42.5735"/>
<polygon fill="red" stroke="red" points="333.849,-39.7742 324.153,-35.5021 329.069,-44.8879 333.849,-39.7742"/>
<text text-anchor="middle" x="362.5" y="-57.8" font-family="Times New Roman,serif" font-size="14.00">A</text>
</g>
<!--  Аналоговый\nпромежуточный сигнал -->
<g id="node3" class="node"><title> Аналоговый\nпромежуточный сигнал</title>
<polygon fill="none" stroke="red" points="278,-125 117,-125 117,-87 278,-87 278,-125"/>
<text text-anchor="middle" x="197.5" y="-109.8" font-family="Times New Roman,serif" font-size="14.00"> Аналоговый</text>
<text text-anchor="middle" x="197.5" y="-94.8" font-family="Times New Roman,serif" font-size="14.00">промежуточный сигнал</text>
</g>
<!--  Аналоговый\nпромежуточный сигнал&#45;&gt; Компаратор -->
<g id="edge6" class="edge"><title> Аналоговый\nпромежуточный сигнал&#45;&gt; Компаратор</title>
<path fill="none" stroke="red" d="M220.35,-86.9716C237.132,-73.7308 260.041,-55.6557 278.017,-41.4731"/>
<polygon fill="red" stroke="red" points="280.206,-44.2039 285.889,-35.262 275.87,-38.7084 280.206,-44.2039"/>
<text text-anchor="middle" x="267.5" y="-57.8" font-family="Times New Roman,serif" font-size="14.00">А</text>
</g>
<!--  Конечное точное значение -->
<g id="node4" class="node"><title> Конечное точное значение</title>
<polygon fill="none" stroke="blue" points="183,-227 0,-227 0,-191 183,-191 183,-227"/>
<text text-anchor="middle" x="91.5" y="-205.3" font-family="Times New Roman,serif" font-size="14.00"> Конечное точное значение</text>
</g>
<!--  Управляющее устройство&#45;&gt; Конечное точное значение -->
<g id="edge4" class="edge"><title> Управляющее устройство&#45;&gt; Конечное точное значение</title>
<path fill="none" stroke="blue" d="M205.784,-278.409C183.884,-265.3 153.099,-246.873 128.997,-232.446"/>
<polygon fill="blue" stroke="blue" points="130.498,-229.265 120.12,-227.131 126.902,-235.271 130.498,-229.265"/>
<text text-anchor="middle" x="176.5" y="-248.8" font-family="Times New Roman,serif" font-size="14.00">Ц</text>
</g>
<!--  ЦАП -->
<g id="node6" class="node"><title> ЦАП</title>
<ellipse fill="none" stroke="black" cx="233.5" cy="-209" rx="32.4942" ry="18"/>
<text text-anchor="middle" x="233.5" y="-205.3" font-family="Times New Roman,serif" font-size="14.00"> ЦАП</text>
</g>
<!--  Управляющее устройство&#45;&gt; ЦАП -->
<g id="edge3" class="edge"><title> Управляющее устройство&#45;&gt; ЦАП</title>
<path fill="none" stroke="blue" d="M233.5,-277.799C233.5,-266.163 233.5,-250.548 233.5,-237.237"/>
<polygon fill="blue" stroke="blue" points="237,-237.175 233.5,-227.175 230,-237.175 237,-237.175"/>
<text text-anchor="middle" x="238.5" y="-248.8" font-family="Times New Roman,serif" font-size="14.00">Ц</text>
</g>
<!--  ЦАП&#45;&gt; Аналоговый\nпромежуточный сигнал -->
<g id="edge5" class="edge"><title> ЦАП&#45;&gt; Аналоговый\nпромежуточный сигнал</title>
<path fill="none" stroke="red" d="M227.393,-190.867C221.934,-175.552 213.835,-152.827 207.443,-134.895"/>
<polygon fill="red" stroke="red" points="210.657,-133.487 204.002,-125.243 204.063,-135.837 210.657,-133.487"/>
<text text-anchor="middle" x="226.5" y="-154.3" font-family="Times New Roman,serif" font-size="14.00">А</text>
</g>
<!--  Компаратор&#45;&gt; Управляющее устройство -->
<g id="edge2" class="edge"><title> Компаратор&#45;&gt; Управляющее устройство</title>
<path fill="none" stroke="brown" d="M306.091,-36.2686C304.751,-72.6349 299.019,-159.329 274.5,-227 269.058,-242.018 260.143,-257.373 252.013,-269.682"/>
<polygon fill="brown" stroke="brown" points="249.042,-267.827 246.293,-278.059 254.823,-271.774 249.042,-267.827"/>
<text text-anchor="middle" x="358" y="-161.8" font-family="Times New Roman,serif" font-size="14.00">Результат сравнения</text>
<text text-anchor="middle" x="358" y="-146.8" font-family="Times New Roman,serif" font-size="14.00"> [&lt;],[&gt;],[=]</text>
</g>
</g>
</svg>
