<?xml version="1.0" encoding="UTF-8" standalone="no"?>
<!DOCTYPE svg PUBLIC "-//W3C//DTD SVG 1.0//EN" "http://www.w3.org/TR/2001/PR-SVG-20010719/DTD/svg10.dtd">
<svg width="14cm" height="13cm" viewBox="85 3 266 258" xmlns="http://www.w3.org/2000/svg" xmlns:xlink="http://www.w3.org/1999/xlink">
  <g>
    <line style="fill: none; fill-opacity:0; stroke-width: 2; stroke: #000000" x1="100" y1="15" x2="100" y2="30"/>
    <rect style="fill: #ffffff" x="95" y="30" width="10" height="30"/>
    <rect style="fill: none; fill-opacity:0; stroke-width: 2; stroke: #000000" x="95" y="30" width="10" height="30"/>
    <line style="fill: none; fill-opacity:0; stroke-width: 2; stroke: #000000" x1="100" y1="60" x2="100" y2="75"/>
  </g>
  <g>
    <line style="fill: none; fill-opacity:0; stroke-width: 2; stroke: #000000" x1="99.7" y1="75" x2="99.7" y2="90"/>
    <rect style="fill: #ffffff" x="95" y="90" width="9.4" height="30"/>
    <rect style="fill: none; fill-opacity:0; stroke-width: 2; stroke: #000000" x="95" y="90" width="9.4" height="30"/>
    <line style="fill: none; fill-opacity:0; stroke-width: 2; stroke: #000000" x1="99.7" y1="120" x2="99.7" y2="135"/>
  </g>
  <g>
    <line style="fill: none; fill-opacity:0; stroke-width: 2; stroke: #000000" x1="100" y1="130" x2="100" y2="145"/>
    <rect style="fill: #ffffff" x="95" y="145" width="10" height="30"/>
    <rect style="fill: none; fill-opacity:0; stroke-width: 2; stroke: #000000" x="95" y="145" width="10" height="30"/>
    <line style="fill: none; fill-opacity:0; stroke-width: 2; stroke: #000000" x1="100" y1="175" x2="100" y2="190"/>
  </g>
  <g>
    <line style="fill: none; fill-opacity:0; stroke-width: 2; stroke: #000000" x1="100" y1="180" x2="100" y2="195"/>
    <rect style="fill: #ffffff" x="95" y="195" width="10" height="30"/>
    <rect style="fill: none; fill-opacity:0; stroke-width: 2; stroke: #000000" x="95" y="195" width="10" height="30"/>
    <line style="fill: none; fill-opacity:0; stroke-width: 2; stroke: #000000" x1="100" y1="225" x2="100" y2="240"/>
  </g>
  <g>
    <line style="fill: none; fill-opacity:0; stroke-width: 2; stroke: #000000" x1="100" y1="235" x2="100" y2="247.5"/>
    <line style="fill: none; fill-opacity:0; stroke-width: 2; stroke: #000000" x1="85" y1="247.5" x2="115" y2="247.5"/>
    <line style="fill: none; fill-opacity:0; stroke-width: 2; stroke: #000000" x1="90.025" y1="253.75" x2="109.975" y2="253.75"/>
    <line style="fill: none; fill-opacity:0; stroke-width: 2; stroke: #000000" x1="95.05" y1="260" x2="104.95" y2="260"/>
  </g>
  <text font-size="12.8" style="fill: #000000;text-anchor:start;font-family:sans-serif;font-style:normal;font-weight:700" x="100" y="15">
    <tspan x="100" y="15">+</tspan>
  </text>
  <g>
    <g>
      <polygon style="fill: #ffffff" points="150,20 185,40 150,60 "/>
      <polygon style="fill: none; fill-opacity:0; stroke-width: 2; stroke: #000000" points="150,20 185,40 150,60 "/>
    </g>
    <text font-size="12.8" style="fill: #000000;text-anchor:start;font-family:sans-serif;font-style:normal;font-weight:normal" x="155" y="45">
      <tspan x="155" y="45">V</tspan>
    </text>
  </g>
  <g>
    <g>
      <polygon style="fill: #ffffff" points="150,70 185,90 150,110 "/>
      <polygon style="fill: none; fill-opacity:0; stroke-width: 2; stroke: #000000" points="150,70 185,90 150,110 "/>
    </g>
    <text font-size="12.8" style="fill: #000000;text-anchor:start;font-family:sans-serif;font-style:normal;font-weight:normal" x="155" y="95">
      <tspan x="155" y="95">V</tspan>
    </text>
  </g>
  <g>
    <g>
      <polygon style="fill: #ffffff" points="150,120 185,140 150,160 "/>
      <polygon style="fill: none; fill-opacity:0; stroke-width: 2; stroke: #000000" points="150,120 185,140 150,160 "/>
    </g>
    <text font-size="12.8" style="fill: #000000;text-anchor:start;font-family:sans-serif;font-style:normal;font-weight:normal" x="155" y="145">
      <tspan x="155" y="145">V</tspan>
    </text>
  </g>
  <g>
    <g>
      <polygon style="fill: #ffffff" points="150,170 185,190 150,210 "/>
      <polygon style="fill: none; fill-opacity:0; stroke-width: 2; stroke: #000000" points="150,170 185,190 150,210 "/>
    </g>
    <text font-size="12.8" style="fill: #000000;text-anchor:start;font-family:sans-serif;font-style:normal;font-weight:normal" x="155" y="195">
      <tspan x="155" y="195">V</tspan>
    </text>
  </g>
  <line style="fill: none; fill-opacity:0; stroke-width: 2; stroke: #000000" x1="100" y1="25" x2="150" y2="25"/>
  <line style="fill: none; fill-opacity:0; stroke-width: 2; stroke: #000000" x1="100" y1="75" x2="150" y2="75"/>
  <line style="fill: none; fill-opacity:0; stroke-width: 2; stroke: #000000" x1="100" y1="130" x2="150" y2="130"/>
  <line style="fill: none; fill-opacity:0; stroke-width: 2; stroke: #000000" x1="100" y1="180" x2="150" y2="180"/>
  <line style="fill: none; fill-opacity:0; stroke-width: 2; stroke: #000000" x1="125" y1="15" x2="125" y2="200"/>
  <text font-size="12.8" style="fill: #000000;text-anchor:start;font-family:sans-serif;font-style:normal;font-weight:normal" x="130" y="15">
    <tspan x="130" y="15">X</tspan>
  </text>
  <line style="fill: none; fill-opacity:0; stroke-width: 2; stroke: #000000" x1="125" y1="50" x2="150" y2="50"/>
  <line style="fill: none; fill-opacity:0; stroke-width: 2; stroke: #000000" x1="125" y1="100" x2="150" y2="100"/>
  <line style="fill: none; fill-opacity:0; stroke-width: 2; stroke: #000000" x1="125" y1="150" x2="150" y2="150"/>
  <line style="fill: none; fill-opacity:0; stroke-width: 2; stroke: #000000" x1="125" y1="200" x2="150" y2="200"/>
  <g>
    <g>
      <rect style="fill: #ffffff" x="205" y="150" width="15" height="30"/>
      <rect style="fill: none; fill-opacity:0; stroke-width: 2; stroke: #000000" x="205" y="150" width="15" height="30"/>
    </g>
    <g>
      <ellipse style="fill: #ffffff" cx="220" cy="165" rx="5" ry="5"/>
      <ellipse style="fill: none; fill-opacity:0; stroke-width: 2; stroke: #000000" cx="220" cy="165" rx="5" ry="5"/>
    </g>
    <line style="fill: none; fill-opacity:0; stroke-width: 2; stroke: #000000" x1="205" y1="150" x2="205" y2="180"/>
  </g>
  <g>
    <g>
      <rect style="fill: #ffffff" x="205" y="100" width="15" height="30"/>
      <rect style="fill: none; fill-opacity:0; stroke-width: 2; stroke: #000000" x="205" y="100" width="15" height="30"/>
    </g>
    <g>
      <ellipse style="fill: #ffffff" cx="220" cy="115" rx="5" ry="5"/>
      <ellipse style="fill: none; fill-opacity:0; stroke-width: 2; stroke: #000000" cx="220" cy="115" rx="5" ry="5"/>
    </g>
    <line style="fill: none; fill-opacity:0; stroke-width: 2; stroke: #000000" x1="205" y1="100" x2="205" y2="130"/>
  </g>
  <g>
    <g>
      <rect style="fill: #ffffff" x="205" y="50" width="15" height="30"/>
      <rect style="fill: none; fill-opacity:0; stroke-width: 2; stroke: #000000" x="205" y="50" width="15" height="30"/>
    </g>
    <g>
      <ellipse style="fill: #ffffff" cx="220" cy="65" rx="5" ry="5"/>
      <ellipse style="fill: none; fill-opacity:0; stroke-width: 2; stroke: #000000" cx="220" cy="65" rx="5" ry="5"/>
    </g>
    <line style="fill: none; fill-opacity:0; stroke-width: 2; stroke: #000000" x1="205" y1="50" x2="205" y2="80"/>
  </g>
  <line style="fill: none; fill-opacity:0; stroke-width: 2; stroke: #000000" x1="185" y1="140" x2="240" y2="140"/>
  <line style="fill: none; fill-opacity:0; stroke-width: 2; stroke: #000000" x1="180" y1="140" x2="205" y2="125"/>
  <line style="fill: none; fill-opacity:0; stroke-width: 2; stroke: #000000" x1="185" y1="90" x2="205" y2="75"/>
  <line style="fill: none; fill-opacity:0; stroke-width: 2; stroke: #000000" x1="185" y1="190" x2="205" y2="175"/>
  <line style="fill: none; fill-opacity:0; stroke-width: 2; stroke: #000000" x1="185" y1="90" x2="240" y2="90"/>
  <line style="fill: none; fill-opacity:0; stroke-width: 2; stroke: #000000" x1="185" y1="40" x2="240" y2="40"/>
  <g>
    <g>
      <rect style="fill: #ffffff" x="240" y="35" width="20" height="30"/>
      <rect style="fill: none; fill-opacity:0; stroke-width: 2; stroke: #000000" x="240" y="35" width="20" height="30"/>
    </g>
    <text font-size="12.8" style="fill: #000000;text-anchor:start;font-family:sans-serif;font-style:normal;font-weight:normal" x="250" y="50">
      <tspan x="250" y="50">&amp;</tspan>
    </text>
  </g>
  <g>
    <g>
      <rect style="fill: #ffffff" x="240" y="85" width="20" height="30"/>
      <rect style="fill: none; fill-opacity:0; stroke-width: 2; stroke: #000000" x="240" y="85" width="20" height="30"/>
    </g>
    <text font-size="12.8" style="fill: #000000;text-anchor:start;font-family:sans-serif;font-style:normal;font-weight:normal" x="250" y="100">
      <tspan x="250" y="100">&amp;</tspan>
    </text>
  </g>
  <g>
    <g>
      <rect style="fill: #ffffff" x="240" y="135" width="20" height="30"/>
      <rect style="fill: none; fill-opacity:0; stroke-width: 2; stroke: #000000" x="240" y="135" width="20" height="30"/>
    </g>
    <text font-size="12.8" style="fill: #000000;text-anchor:start;font-family:sans-serif;font-style:normal;font-weight:normal" x="250" y="150">
      <tspan x="250" y="150">&amp;</tspan>
    </text>
  </g>
  <line style="fill: none; fill-opacity:0; stroke-width: 2; stroke: #000000" x1="220" y1="65" x2="240" y2="55"/>
  <line style="fill: none; fill-opacity:0; stroke-width: 2; stroke: #000000" x1="220" y1="115" x2="240" y2="110"/>
  <line style="fill: none; fill-opacity:0; stroke-width: 2; stroke: #000000" x1="220" y1="165" x2="240" y2="160"/>
  <line style="fill: none; fill-opacity:0; stroke-width: 2; stroke: #000000" x1="260" y1="50" x2="290" y2="50"/>
  <line style="fill: none; fill-opacity:0; stroke-width: 2; stroke: #000000" x1="260" y1="100" x2="350" y2="100"/>
  <line style="fill: none; fill-opacity:0; stroke-width: 2; stroke: #000000" x1="260" y1="150" x2="350" y2="150"/>
  <polyline style="fill: none; fill-opacity:0; stroke-width: 2; stroke: #000000" points="185,190 237.5,190 237.5,200 290,200 "/>
  <g>
    <rect style="fill: #ffffff" x="290" y="20" width="30" height="215"/>
    <rect style="fill: none; fill-opacity:0; stroke-width: 2; stroke: #000000" x="290" y="20" width="30" height="215"/>
  </g>
  <text font-size="12.8" style="fill: #000000;text-anchor:middle;font-family:sans-serif;font-style:normal;font-weight:normal" x="306" y="75">
    <tspan x="306" y="75">Ш</tspan>
    <tspan x="306" y="91">и</tspan>
    <tspan x="306" y="107">ф</tspan>
    <tspan x="306" y="123">р</tspan>
    <tspan x="306" y="139">а</tspan>
    <tspan x="306" y="155">т</tspan>
    <tspan x="306" y="171">о</tspan>
    <tspan x="306" y="187">р</tspan>
  </text>
</svg>
