<?xml version="1.0" encoding="UTF-8" standalone="no"?>
<!DOCTYPE svg PUBLIC "-//W3C//DTD SVG 1.1//EN"
 "http://www.w3.org/Graphics/SVG/1.1/DTD/svg11.dtd">
<!-- Generated by graphviz version 2.38.0 (20140413.2041)
 -->
<!-- Title: G Pages: 1 -->
<svg width="262pt" height="483pt"
 viewBox="0.00 0.00 261.79 482.74" xmlns="http://www.w3.org/2000/svg" xmlns:xlink="http://www.w3.org/1999/xlink">
<g id="graph0" class="graph" transform="scale(1 1) rotate(0) translate(4 478.74)">
<title>G</title>
<polygon fill="white" stroke="none" points="-4,4 -4,-478.74 257.788,-478.74 257.788,4 -4,4"/>
<!--  Значение -->
<g id="node1" class="node"><title> Значение</title>
<polygon fill="none" stroke="blue" points="98.2878,-401.74 22.2878,-401.74 22.2878,-365.74 98.2878,-365.74 98.2878,-401.74"/>
<text text-anchor="middle" x="60.2878" y="-380.04" font-family="Times New Roman,serif" font-size="14.00"> Значение</text>
</g>
<!--  [&gt;=] ? -->
<g id="node4" class="node"><title> [&gt;=] ?</title>
<ellipse fill="none" stroke="black" cx="98.2878" cy="-296.74" rx="36.2938" ry="18"/>
<text text-anchor="middle" x="98.2878" y="-293.04" font-family="Times New Roman,serif" font-size="14.00"> [&gt;=] ?</text>
</g>
<!--  Значение&#45;&gt; [&gt;=] ? -->
<g id="edge3" class="edge"><title> Значение&#45;&gt; [&gt;=] ?</title>
<path fill="none" stroke="blue" d="M67.9777,-365.539C73.3178,-353.594 80.5319,-337.457 86.5825,-323.923"/>
<polygon fill="blue" stroke="blue" points="89.853,-325.183 90.7391,-314.625 83.4625,-322.326 89.853,-325.183"/>
<text text-anchor="middle" x="88.2878" y="-336.54" font-family="Times New Roman,serif" font-size="14.00">Ц</text>
</g>
<!--  Аналоговый сигнал -->
<g id="node2" class="node"><title> Аналоговый сигнал</title>
<polygon fill="none" stroke="red" points="168.288,-36 28.2878,-36 28.2878,-0 168.288,-0 168.288,-36"/>
<text text-anchor="middle" x="98.2878" y="-14.3" font-family="Times New Roman,serif" font-size="14.00"> Аналоговый сигнал</text>
</g>
<!--  Тактовые импульсы -->
<g id="node3" class="node"><title> Тактовые импульсы</title>
<polygon fill="none" stroke="black" points="253.788,-474.74 110.788,-474.74 110.788,-438.74 253.788,-438.74 253.788,-474.74"/>
<text text-anchor="middle" x="182.288" y="-453.04" font-family="Times New Roman,serif" font-size="14.00"> Тактовые импульсы</text>
</g>
<!--  Счётчик [++] -->
<g id="node5" class="node"><title> Счётчик [++]</title>
<ellipse fill="none" stroke="black" cx="182.288" cy="-383.74" rx="65.7887" ry="18"/>
<text text-anchor="middle" x="182.288" y="-380.04" font-family="Times New Roman,serif" font-size="14.00"> Счётчик [++]</text>
</g>
<!--  Тактовые импульсы&#45;&gt; Счётчик [++] -->
<g id="edge1" class="edge"><title> Тактовые импульсы&#45;&gt; Счётчик [++]</title>
<path fill="none" stroke="black" d="M182.288,-438.553C182.288,-430.53 182.288,-420.788 182.288,-411.809"/>
<polygon fill="black" stroke="black" points="185.788,-411.769 182.288,-401.769 178.788,-411.769 185.788,-411.769"/>
</g>
<!--  Аналоговый ключ -->
<g id="node7" class="node"><title> Аналоговый ключ</title>
<ellipse fill="none" stroke="red" cx="98.2878" cy="-209.74" rx="85.2851" ry="18"/>
<text text-anchor="middle" x="98.2878" y="-206.04" font-family="Times New Roman,serif" font-size="14.00"> Аналоговый ключ</text>
</g>
<!--  [&gt;=] ?&#45;&gt; Аналоговый ключ -->
<g id="edge4" class="edge"><title> [&gt;=] ?&#45;&gt; Аналоговый ключ</title>
<path fill="none" stroke="blue" d="M98.2878,-278.539C98.2878,-266.903 98.2878,-251.288 98.2878,-237.977"/>
<polygon fill="blue" stroke="blue" points="101.788,-237.916 98.2878,-227.916 94.7879,-237.916 101.788,-237.916"/>
<text text-anchor="middle" x="103.288" y="-249.54" font-family="Times New Roman,serif" font-size="14.00">Ц</text>
</g>
<!--  Счётчик [++]&#45;&gt; [&gt;=] ? -->
<g id="edge2" class="edge"><title> Счётчик [++]&#45;&gt; [&gt;=] ?</title>
<path fill="none" stroke="blue" d="M165.692,-365.947C152.944,-353.047 135.194,-335.086 121.109,-320.833"/>
<polygon fill="blue" stroke="blue" points="123.235,-318.005 113.716,-313.352 118.256,-322.925 123.235,-318.005"/>
<text text-anchor="middle" x="150.288" y="-336.54" font-family="Times New Roman,serif" font-size="14.00">Ц</text>
</g>
<!--  Схема сглаживания\n(может не быть) -->
<g id="node6" class="node"><title> Схема сглаживания\n(может не быть)</title>
<ellipse fill="none" stroke="red" cx="98.2878" cy="-113.87" rx="98.0761" ry="26.7407"/>
<text text-anchor="middle" x="98.2878" y="-117.67" font-family="Times New Roman,serif" font-size="14.00"> Схема сглаживания</text>
<text text-anchor="middle" x="98.2878" y="-102.67" font-family="Times New Roman,serif" font-size="14.00">(может не быть)</text>
</g>
<!--  Схема сглаживания\n(может не быть)&#45;&gt; Аналоговый сигнал -->
<g id="edge6" class="edge"><title> Схема сглаживания\n(может не быть)&#45;&gt; Аналоговый сигнал</title>
<path fill="none" stroke="red" d="M98.2878,-86.9712C98.2878,-74.337 98.2878,-59.1387 98.2878,-46.3205"/>
<polygon fill="red" stroke="red" points="101.788,-46.2214 98.2878,-36.2215 94.7879,-46.2215 101.788,-46.2214"/>
<text text-anchor="middle" x="103.288" y="-57.8" font-family="Times New Roman,serif" font-size="14.00">А</text>
</g>
<!--  Аналоговый ключ&#45;&gt; Схема сглаживания\n(может не быть) -->
<g id="edge5" class="edge"><title> Аналоговый ключ&#45;&gt; Схема сглаживания\n(может не быть)</title>
<path fill="none" stroke="red" d="M98.2878,-191.523C98.2878,-180.219 98.2878,-165.009 98.2878,-151.118"/>
<polygon fill="red" stroke="red" points="101.788,-150.839 98.2878,-140.839 94.7879,-150.839 101.788,-150.839"/>
<text text-anchor="middle" x="103.288" y="-162.54" font-family="Times New Roman,serif" font-size="14.00">А</text>
</g>
</g>
</svg>
